<?xml version="1.0" encoding="UTF-8" standalone="no"?>
<!DOCTYPE svg PUBLIC "-//W3C//DTD SVG 1.1//EN" "http://www.w3.org/Graphics/SVG/1.1/DTD/svg11.dtd">
<svg width="100%" height="100%" viewBox="0 0 1560 1561" version="1.1" xmlns="http://www.w3.org/2000/svg" xmlns:xlink="http://www.w3.org/1999/xlink" xml:space="preserve" xmlns:serif="http://www.serif.com/" style="fill-rule:evenodd;clip-rule:evenodd;stroke-linecap:round;stroke-linejoin:round;stroke-miterlimit:1.5;">
    <g transform="matrix(1,0,0,1,0,-3283)">
        <g id="snoot_goggles_bw" transform="matrix(0.999084,0,0,0.967177,-525.077,3112.54)">
            <rect x="525.559" y="176.916" width="1561.43" height="1612.94" style="fill:none;"/>
            <g transform="matrix(0.816992,0,0,0.965041,218.114,65.0749)">
                <g transform="matrix(1.22513,0,0,1.07139,421.167,176.916)">
                    <path d="M812.496,561.234C814.929,561.122 820.219,560.728 823.719,559.364C832.854,555.803 841.789,548.408 849.629,537.26C916.006,442.88 979.09,308.258 1044.18,197.877C1114.74,78.23 1128.37,58.021 1294.02,-24.902C1308.95,-32.374 1326.53,-32.359 1341.44,-24.861C1356.35,-17.364 1366.85,-3.265 1369.75,13.172C1410.97,246.307 1309.69,466.492 1089.2,684.533C1184.15,960.787 1147.33,1176.56 945.366,1247.23C934.469,1251.05 846.743,1279.25 720.45,1303.1C663.533,1313.86 591.632,1350.72 515.955,1387.38C445.691,1421.42 402.699,1462.21 316.323,1474.36C202.725,1490.33 121.801,1417.47 114.661,1345.45C109.343,1291.81 107.03,1257.72 108.392,1235.09C109.975,1208.79 116.453,1191.84 124.95,1179.04L141.446,1160.64C148.45,1154.77 156.747,1149.67 166.847,1145.03C179.853,1139.05 198.114,1133.63 222.783,1121.32C250.861,1107.31 281.723,1073.58 309.893,1039.51C345.735,996.153 376.23,950.684 389.158,930.787L401.959,787.462C403.517,770.019 413.61,754.479 428.913,745.964C444.215,737.449 462.741,737.063 478.385,744.934L532.585,772.203L587.153,702.825C513.698,632.92 438.439,548.463 397.051,461.032C296.37,248.343 297.284,105.132 297.284,105.132C297.249,88.22 305.305,72.313 318.958,62.334C332.611,52.355 350.214,49.51 366.316,54.678C366.316,54.678 486.722,91.239 626.898,253.631C666.383,299.374 711.958,389.736 753.392,466.256C775.222,506.572 794.922,542.778 812.496,561.234Z" style="fill:white;stroke:black;stroke-width:20.83px;"/>
                </g>
                <g transform="matrix(1.22513,0,0,1.07139,421.167,176.916)">
                    <path d="M658.873,697.156C579.93,626.036 490.302,534.448 444.84,438.41C350.436,238.983 350.156,105.021 350.156,105.021C350.156,105.021 458.904,139.928 586.875,288.18C649.661,360.916 726.75,552.991 779.072,602.554C800.47,622.823 855.701,620.537 892.877,567.676C959.971,472.276 1023.93,336.308 1089.72,224.734C1153.97,115.781 1166.84,97.889 1317.69,22.377C1357.63,248.26 1250.02,459.19 1027.91,670.309C1124.1,927.01 1112.49,1132.74 927.903,1197.33C917.378,1201.01 832.615,1228.11 710.635,1251.15C650.139,1262.58 573.337,1300.83 492.902,1339.8C427.892,1371.3 388.878,1410.76 308.961,1422C231.319,1432.92 172.156,1389.46 167.276,1340.24C150.893,1174.98 161.891,1210.81 246.395,1168.63C329.413,1127.19 377.613,1037.22 438.707,967.388C515.212,879.942 587.076,788.507 658.873,697.156Z" style="stroke:black;stroke-width:20.83px;"/>
                </g>
                <g transform="matrix(1.22513,0,0,1.07139,421.167,176.916)">
                    <path d="M1021.67,634.372C1021.67,634.372 1110.66,319.429 1157.71,230.278C1206.57,137.704 1300.99,63.207 1300.99,63.207C1300.99,63.207 1274.16,284.635 1228.55,371.058C1179.7,463.632 1021.67,634.372 1021.67,634.372Z" style="fill:white;"/>
                </g>
                <g transform="matrix(1.22513,0,0,1.07139,421.167,176.916)">
                    <path d="M1021.67,634.372C1021.67,634.372 1110.66,319.429 1157.71,230.278C1206.57,137.704 1300.99,63.207 1300.99,63.207C1300.99,63.207 1274.16,284.635 1228.55,371.058C1179.7,463.632 1021.67,634.372 1021.67,634.372Z" style="fill:white;"/>
                </g>
                <g transform="matrix(1.22513,0,0,1.07139,421.167,176.916)">
                    <path d="M664.982,671.572L511.03,377.581L372.73,195.051C372.73,195.051 436.696,409.834 490.367,484.32C543.456,558 664.982,671.572 664.982,671.572Z" style="fill:white;"/>
                </g>
                <g transform="matrix(1.22513,0,0,1.07139,-1310.28,180.497)">
                    <path d="M1592.67,1204.28C1618.25,1176.62 1712.81,1177.84 1742.4,1214.23C1771.99,1250.61 1792.78,1375.64 1767.21,1403.31C1741.64,1430.97 1619.03,1405.8 1589.44,1369.42C1559.84,1333.03 1567.1,1231.94 1592.67,1204.28Z" style="stroke:black;stroke-width:41.67px;"/>
                </g>
                <g transform="matrix(1.54488,0,0,1.32761,-1845.7,-152.6)">
                    <path d="M1592.67,1204.28C1618.25,1176.62 1712.81,1177.84 1742.4,1214.23C1771.99,1250.61 1792.78,1375.64 1767.21,1403.31C1741.64,1430.97 1619.03,1405.8 1589.44,1369.42C1559.84,1333.03 1567.1,1231.94 1592.67,1204.28Z" style="stroke:white;stroke-width:16.67px;"/>
                </g>
                <g transform="matrix(1.21107,-0.161797,0.185013,1.0591,414.079,119.642)">
                    <path d="M83.982,1343.57C95.511,1343.57 115.796,1358.57 110.89,1385.32C105.299,1415.81 93.1,1435.08 83.982,1442.13C70.408,1452.64 60.621,1442.96 66.478,1385.68C69.244,1358.62 72.453,1343.57 83.982,1343.57Z" style="fill:white;"/>
                </g>
                <g transform="matrix(-1.21107,-0.161797,-0.185013,1.0591,1032.97,103.342)">
                    <path d="M83.982,1343.57C95.511,1343.57 115.796,1358.57 110.89,1385.32C105.299,1415.81 93.1,1435.08 83.982,1442.13C70.408,1452.64 60.621,1442.96 66.478,1385.68C69.244,1358.62 72.453,1343.57 83.982,1343.57Z" style="fill:white;"/>
                </g>
                <g transform="matrix(1.2662,0,0,1.24761,488.622,31.4054)">
                    <path d="M390.645,797.487C516.939,885.457 874.881,872.64 898.124,836.792C898.124,836.792 899.156,911.218 899.156,996.891C899.156,1048.51 652.403,1064.38 584.658,1040.41C521.214,1017.97 495.329,931.551 449.232,920.907C403.135,910.264 378.593,947.837 378.593,947.837C378.593,947.837 384.802,793.417 390.645,797.487Z" style="fill:white;stroke:black;stroke-width:18.92px;"/>
                </g>
                <g transform="matrix(-0.0220082,0.739332,-1.01001,-0.0229935,1418.86,1210.08)">
                    <path d="M0,-69.098C38.136,-69.098 28.078,-40.702 28.078,-2.565C28.078,35.571 38.136,69.098 0,69.098C-38.136,69.098 -69.098,38.136 -69.098,0C-69.098,-38.136 -38.136,-69.098 0,-69.098Z"/>
                </g>
                <g transform="matrix(0.766053,0,0,0.930735,990.352,288.386)">
                    <path d="M832.347,847.256L835.368,951.792L1008.81,858.27L1001.09,812.61L832.347,847.256Z" style="fill:white;stroke:black;stroke-width:27.53px;"/>
                </g>
            </g>
        </g>
    </g>
</svg>
